<?xml version="1.0" encoding="UTF-8" standalone="no"?>
<!-- Created with Inkscape (http://www.inkscape.org/) -->
<svg
   xmlns:dc="http://purl.org/dc/elements/1.1/"
   xmlns:cc="http://web.resource.org/cc/"
   xmlns:rdf="http://www.w3.org/1999/02/22-rdf-syntax-ns#"
   xmlns:svg="http://www.w3.org/2000/svg"
   xmlns="http://www.w3.org/2000/svg"
   xmlns:xlink="http://www.w3.org/1999/xlink"
   xmlns:sodipodi="http://sodipodi.sourceforge.net/DTD/sodipodi-0.dtd"
   xmlns:inkscape="http://www.inkscape.org/namespaces/inkscape"
   version="1.0"
   width="779.52753"
   height="777.04724"
   id="svg2177"
   sodipodi:version="0.32"
   inkscape:version="0.45"
   sodipodi:docname="Bayer-Logo2.svg"
   inkscape:output_extension="org.inkscape.output.svg.inkscape"
   sodipodi:docbase="Y:\Eigene Dateien Andreas\Eigene Bilder\sonstiges\Logos\Vektor\[--Convertme!--]"
   sodipodi:modified="true">
  <metadata
     id="metadata9741">
    <rdf:RDF>
      <cc:Work
         rdf:about="">
        <dc:format>image/svg+xml</dc:format>
        <dc:type
           rdf:resource="http://purl.org/dc/dcmitype/StillImage" />
      </cc:Work>
    </rdf:RDF>
  </metadata>
  <sodipodi:namedview
     inkscape:window-height="1088"
     inkscape:window-width="1600"
     inkscape:pageshadow="2"
     inkscape:pageopacity="0.0"
     guidetolerance="10.0"
     gridtolerance="10.0"
     objecttolerance="10.0"
     borderopacity="1.0"
     bordercolor="#666666"
     pagecolor="#ffffff"
     id="base"
     inkscape:zoom="0.609551"
     inkscape:cx="244.10199"
     inkscape:cy="260.34182"
     inkscape:window-x="-4"
     inkscape:window-y="-4"
     inkscape:current-layer="svg2177" />
  <defs
     id="defs2179">
    <linearGradient
       inkscape:collect="always"
       id="linearGradient12844">
      <stop
         style="stop-color:#1c1714;stop-opacity:1;"
         offset="0"
         id="stop12846" />
      <stop
         style="stop-color:#eaeaea;stop-opacity:1"
         offset="1"
         id="stop12848" />
    </linearGradient>
    <linearGradient
       inkscape:collect="always"
       id="linearGradient12835">
      <stop
         style="stop-color:#eaeaea;stop-opacity:1"
         offset="0"
         id="stop12837" />
      <stop
         style="stop-color:#1c1714;stop-opacity:1"
         offset="1"
         id="stop12839" />
    </linearGradient>
    <linearGradient
       inkscape:collect="always"
       id="linearGradient12746">
      <stop
         style="stop-color:#1c1714;stop-opacity:1"
         offset="0"
         id="stop12748" />
      <stop
         style="stop-color:#eaeaea;stop-opacity:1"
         offset="1"
         id="stop12750" />
    </linearGradient>
    <linearGradient
       inkscape:collect="always"
       id="linearGradient12731">
      <stop
         style="stop-color:#eaeaea;stop-opacity:1"
         offset="0"
         id="stop12733" />
      <stop
         style="stop-color:#1c1714;stop-opacity:1"
         offset="1"
         id="stop12735" />
    </linearGradient>
    <linearGradient
       id="linearGradient17449">
      <stop
         style="stop-color:#7ab734;stop-opacity:1"
         offset="0"
         id="stop17451" />
      <stop
         style="stop-color:#ffffff;stop-opacity:1"
         offset="0.5"
         id="stop17461" />
      <stop
         style="stop-color:#0096d5;stop-opacity:1"
         offset="1"
         id="stop17453" />
    </linearGradient>
    <linearGradient
       x1="-250.27283"
       y1="-414.69208"
       x2="257.81677"
       y2="85.526321"
       id="linearGradient17455"
       xlink:href="#linearGradient17449"
       gradientUnits="userSpaceOnUse" />
    <linearGradient
       x1="-254.28632"
       y1="-409.76868"
       x2="256.77069"
       y2="82.640121"
       id="linearGradient17459"
       xlink:href="#linearGradient17449"
       gradientUnits="userSpaceOnUse"
       gradientTransform="translate(-839.61185,69.197809)" />
    <linearGradient
       inkscape:collect="always"
       xlink:href="#linearGradient17449"
       id="linearGradient10056"
       gradientUnits="userSpaceOnUse"
       x1="-250.27283"
       y1="-414.69208"
       x2="257.81677"
       y2="85.526321"
       gradientTransform="translate(381.39152,553.1065)" />
    <linearGradient
       inkscape:collect="always"
       xlink:href="#linearGradient12731"
       id="linearGradient12737"
       x1="181.84334"
       y1="343.15869"
       x2="204.33521"
       y2="371.23944"
       gradientUnits="userSpaceOnUse" />
    <linearGradient
       inkscape:collect="always"
       xlink:href="#linearGradient12731"
       id="linearGradient12740"
       gradientUnits="userSpaceOnUse"
       x1="180.40948"
       y1="368.24054"
       x2="175.30025"
       y2="361.28848" />
    <linearGradient
       inkscape:collect="always"
       xlink:href="#linearGradient12746"
       id="linearGradient12752"
       x1="176.57527"
       y1="398.34122"
       x2="182.70712"
       y2="407.26361"
       gradientUnits="userSpaceOnUse" />
    <linearGradient
       inkscape:collect="always"
       xlink:href="#linearGradient12731"
       id="linearGradient12782"
       gradientUnits="userSpaceOnUse"
       x1="180.40948"
       y1="368.24054"
       x2="175.30025"
       y2="361.28848" />
    <linearGradient
       inkscape:collect="always"
       xlink:href="#linearGradient12746"
       id="linearGradient12784"
       gradientUnits="userSpaceOnUse"
       x1="176.57527"
       y1="398.34122"
       x2="182.70712"
       y2="407.26361" />
    <linearGradient
       inkscape:collect="always"
       xlink:href="#linearGradient12731"
       id="linearGradient12786"
       gradientUnits="userSpaceOnUse"
       x1="181.84334"
       y1="343.15869"
       x2="204.33521"
       y2="371.23944" />
    <linearGradient
       inkscape:collect="always"
       xlink:href="#linearGradient12835"
       id="linearGradient12841"
       x1="654.50323"
       y1="342.88031"
       x2="677.21594"
       y2="371.75629"
       gradientUnits="userSpaceOnUse" />
    <linearGradient
       inkscape:collect="always"
       xlink:href="#linearGradient12844"
       id="linearGradient12850"
       x1="647.64966"
       y1="361.04413"
       x2="654.28369"
       y2="368.34879"
       gradientUnits="userSpaceOnUse" />
    <linearGradient
       inkscape:collect="always"
       xlink:href="#linearGradient12835"
       id="linearGradient12883"
       gradientUnits="userSpaceOnUse"
       x1="654.50323"
       y1="342.88031"
       x2="677.21594"
       y2="371.75629" />
    <linearGradient
       inkscape:collect="always"
       xlink:href="#linearGradient12844"
       id="linearGradient12885"
       gradientUnits="userSpaceOnUse"
       x1="647.64966"
       y1="361.04413"
       x2="654.28369"
       y2="368.34879" />
  </defs>
  <path
     id="path7709"
     style="fill:url(#linearGradient10056);fill-opacity:1;stroke:#000000;stroke-width:3;stroke-miterlimit:4;stroke-dasharray:none;stroke-opacity:1"
     d="M 389.89436,35.36836 C 194.30068,35.36836 35.43305,193.1598 35.43305,388.00121 C 35.43305,583.59489 194.30068,741.67889 389.89436,741.67889 C 585.48805,741.67889 744.09447,583.59489 744.09447,388.00121 C 744.09447,193.1598 585.48805,35.36836 389.89436,35.36836 z M 389.89436,69.06439 C 566.68096,69.06439 710.39844,211.96689 710.39844,388.00121 C 710.39844,564.78781 566.68096,707.72165 389.89436,707.72165 C 213.10776,707.72165 69.39029,564.78781 69.39029,388.00121 C 69.3902,211.96689 213.10776,69.06439 389.89436,69.06439 z " />
  <g
     id="g12754">
    <path
       d="M 128.84116,418.91616 L 172.47359,418.91616 C 179.24414,418.91616 183.00556,414.40246 183.00556,408.38419 C 183.00556,401.61364 179.24414,397.09994 172.47359,397.09994 L 128.84116,397.09994 L 128.84116,418.91616 z M 128.84116,379.04514 L 170.96903,379.04514 C 176.98729,379.04514 180.74871,375.28372 180.74871,369.26545 C 180.74871,363.99947 176.98729,359.48577 170.96903,359.48577 L 128.84116,359.48577 L 128.84116,379.04514 L 128.84116,379.04514 z M 108.5295,436.97096 L 108.5295,342.18325 L 173.97816,342.18325 C 189.02383,342.18325 201.06036,354.21979 201.06036,369.26545 C 201.06036,376.036 198.80351,382.80655 193.53753,387.32025 C 199.5558,392.58624 203.31721,400.10907 203.31721,408.38419 C 203.31721,423.42986 190.52839,436.97096 175.48273,436.97096 L 108.5295,436.97096 L 108.5295,436.97096 z "
       style="fill:#9d9d9d;fill-opacity:1"
       id="path6143" />
    <path
       sodipodi:nodetypes="cccsccccccsccssssscscccc"
       id="polygon6217"
       d="M 104.78125,338.40625 L 104.78125,440.71875 L 175.46875,440.71875 C 192.77126,440.71875 207.09375,426.4298 207.09375,408.375 C 207.09375,400.09988 204.07849,392.57849 198.8125,387.3125 C 203.08227,383.14682 204.41038,375.46326 204.8125,369.25 C 204.8125,351.94748 191.27127,338.40624 173.96875,338.40625 L 104.78125,338.40625 z M 107.78125,341.4375 L 173.96875,341.4375 C 189.7667,341.4375 201.8125,353.45206 201.8125,369.25 C 201.8125,370.31138 201.74058,371.3835 201.625,372.4375 L 199.78125,374.3125 C 199.51469,375.56978 199.13324,376.80012 198.6875,378 C 198.49224,378.52562 198.28929,379.05187 198.0625,379.5625 C 198.03043,379.6347 198.00143,379.70938 197.96875,379.78125 C 197.9059,379.91873 197.84633,380.05128 197.78125,380.1875 C 197.57205,380.6282 197.35653,381.07327 197.125,381.5 C 195.93696,383.67703 194.45469,385.63911 192.78125,387.3125 C 198.79952,392.57849 202.5625,400.09988 202.5625,408.375 C 202.5625,423.42067 190.51441,436.21874 175.46875,436.21875 L 109.28125,436.21875 L 107.78125,437.71875 L 107.78125,341.4375 z "
       style="fill:#1c1714" />
    <path
       sodipodi:nodetypes="ccccsczcsccccsccc"
       id="path6247"
       d="M 128.09375,359.5 L 128.09375,379.8125 L 129.59375,378.28125 L 170.96875,378.28125 C 175.48245,378.28125 180,373.76371 180,369.25 C 180,366.49615 177.23705,363.80021 174.16954,362.30643 C 174.16954,362.30643 176.72693,360.95786 175.875,360.59375 C 175.02744,360.2315 174.25,359.96875 174.25,359.96875 C 173.85724,359.85148 173.67947,359.82743 173.26991,359.72422 C 172.64098,359.56573 171.68881,359.49102 170.96875,359.5 L 128.09375,359.5 z M 132.59375,364 L 170.96875,364 C 174.73016,364 177,366.24088 177,369.25 C 177,373.01142 174.73017,375.28125 170.96875,375.28125 L 132.59375,375.28125 L 132.59375,364 z "
       style="fill:#1c1714" />
    <path
       id="polygon6253"
       d="M 128.09375 396.34375 L 128.09375 419.65625 L 129.59375 418.15625 L 172.46875 418.15625 C 177.73474 418.15625 182.25 412.8887 182.25 408.375 C 182.25 404.36905 179.6312 400.37501 176.0625 398.6875 L 177.40625 397.4375 C 177.04099 397.26496 176.67001 397.13623 176.28125 397 L 176.3125 396.96875 C 176.0193 396.86805 175.71403 396.79706 175.40625 396.71875 C 175.3336 396.70027 175.26092 396.67342 175.1875 396.65625 C 174.32777 396.45518 173.42043 396.34375 172.46875 396.34375 L 128.09375 396.34375 z M 132.59375 400.875 L 172.46875 400.875 C 176.23017 400.875 179.25 403.8613 179.25 408.375 C 179.25 412.13642 176.23017 415.15624 172.46875 415.15625 L 132.59375 415.15625 L 132.59375 400.875 z "
       style="fill:#1c1714" />
    <path
       id="path6345"
       d="M 175.875 360.59375 L 174 362.34375 C 174.75228 362.63989 175.46585 363.02607 176.09375 363.5 C 176.79864 364.03311 177.41166 364.65658 177.90625 365.34375 C 178.45415 366.10488 178.84334 366.95063 179.0625 367.8125 C 179.18395 368.29823 179.25 368.75542 179.25 369.25 C 179.25 370.19488 179.08333 371.147 178.78125 372 L 181.5 369.25 C 181.5 368.12752 181.28833 367.07842 180.90625 366.0625 C 180.58644 365.20357 180.1506 364.39374 179.59375 363.65625 C 179.06656 362.95436 178.42958 362.30385 177.71875 361.75 C 177.14417 361.30282 176.54729 360.91949 175.875 360.59375 z M 173.6875 377.09375 C 172.8345 377.39584 171.91353 377.53125 170.96875 377.53125 L 170.96875 379.8125 L 173.6875 377.09375 z "
       style="fill:url(#linearGradient12740);opacity:1;color:#000000;fill-opacity:1;fill-rule:nonzero;stroke:none;stroke-width:1;stroke-linecap:butt;stroke-linejoin:miter;marker:none;marker-start:none;marker-mid:none;marker-end:none;stroke-miterlimit:4;stroke-dasharray:none;stroke-dashoffset:0;stroke-opacity:1;visibility:visible;display:inline;overflow:visible;enable-background:accumulate" />
    <path
       id="path6353"
       d="M 107.03125 340.6875 L 107.03125 438.46875 L 109.28125 436.21875 L 109.28125 342.9375 L 173.96875 342.9375 C 174.46041 342.93751 174.9547 342.94509 175.4375 342.96875 C 176.36769 343.01664 177.29225 343.11868 178.1875 343.25 C 178.62052 343.31352 179.04393 343.38572 179.46875 343.46875 C 180.09581 343.58494 180.70634 343.71198 181.3125 343.875 L 183.03125 342.15625 C 182.45858 341.96591 181.8651 341.81204 181.28125 341.65625 L 181.3125 341.625 C 181.0567 341.55737 180.78963 341.52903 180.53125 341.46875 C 180.38398 341.43439 180.24187 341.37575 180.09375 341.34375 C 179.25004 341.16148 178.37245 341.01409 177.5 340.90625 C 176.34198 340.76416 175.1653 340.6875 173.96875 340.6875 L 107.03125 340.6875 z M 181.40625 367.875 L 179.21875 370.0625 C 178.84262 373.96608 175.6536 377.12084 171.75 377.5 L 170.96875 378.28125 L 170.96875 377.53125 L 130.34375 377.53125 L 128.09375 379.8125 L 170.96875 379.8125 C 171.5374 379.8125 172.08595 379.76449 172.625 379.6875 C 177.04684 379.05074 180.40459 375.87776 181.28125 371.5625 C 181.42929 370.83388 181.5 370.03789 181.5 369.25 C 181.5 368.77323 181.4803 368.33698 181.40625 367.875 z M 183.59375 406.1875 L 181.5 408.1875 L 181.5 408.375 C 181.5 412.8887 177.73474 417.40625 172.46875 417.40625 L 130.34375 417.40625 L 128.09375 419.65625 L 172.46875 419.65625 C 173.01667 419.65626 173.54718 419.62761 174.0625 419.5625 C 179.36401 418.88127 182.99875 414.8483 183.65625 410 C 183.72737 409.47574 183.75 408.91706 183.75 408.375 C 183.75 407.62272 183.70033 406.89532 183.59375 406.1875 z "
       style="fill:#eaeaea;fill-opacity:1" />
    <path
       sodipodi:nodetypes="ccccc"
       id="path6365"
       d="M 177.32735,397.36406 L 175.71875,398.96875 C 179.79871,401.21879 181.92521,405.29683 181.40625,409.75 C 182.86215,408.4376 182.33007,408.9888 183.75,407.53125 C 183.64743,403.26231 181.02828,399.33772 177.32735,397.36406 z "
       style="fill:url(#linearGradient12752);fill-opacity:1.0" />
    <path
       sodipodi:nodetypes="ccssssssssssssssccccssssssssssssc"
       id="path6413"
       d="M 183.03125,342.15625 L 181.3125,343.875 C 182.28394,344.1357 183.2098,344.45124 184.125,344.8125 C 184.83582,345.09092 185.54345,345.41231 186.21875,345.75 C 187.04802,346.16166 187.85491,346.59917 188.625,347.09375 C 189.38313,347.5825 190.11647,348.12479 190.8125,348.6875 C 191.36636,349.13478 191.89386,349.60209 192.40625,350.09375 C 193.04595,350.70677 193.6471,351.35303 194.21875,352.03125 C 194.79625,352.7154 195.34022,353.4099 195.84375,354.15625 C 196.2524,354.7575 196.64459,355.39147 197,356.03125 C 197.45312,356.84866 197.85147,357.68876 198.21875,358.5625 C 198.59489,359.4599 198.90907,360.39002 199.1875,361.34375 C 199.41853,362.13449 199.62135,362.95491 199.78125,363.78125 C 200.02114,365.01031 200.17595,366.26531 200.25,367.5625 C 200.2826,368.1253 200.3125,368.67543 200.3125,369.25 C 200.31251,369.76541 200.2826,370.29718 200.25,370.8125 C 200.17302,371.99125 200.02708,373.32264 199.78125,374.47773 L 202.46875,371.59375 C 202.53094,370.82367 202.5625,370.04082 202.5625,369.25 L 202.5625,368.53125 C 202.53582,367.53312 202.46813,366.53395 202.34375,365.5625 C 202.18386,364.32449 201.93595,363.11926 201.625,361.9375 C 201.42063,361.15856 201.17281,360.37436 200.90625,359.625 C 200.58051,358.71582 200.22417,357.83062 199.8125,356.96875 C 199.41262,356.13054 198.97686,355.32499 198.5,354.53125 C 198.12386,353.90927 197.73011,353.30812 197.3125,352.71875 C 196.79417,351.99013 196.23968,351.26905 195.65625,350.59375 C 195.07866,349.92146 194.44926,349.30052 193.8125,348.6875 C 193.30011,348.19284 192.76675,347.70321 192.21875,347.25 C 191.53167,346.67843 190.83417,346.12844 190.09375,345.625 C 189.34146,345.11262 188.5526,344.66001 187.75,344.21875 C 187.09542,343.86034 186.43115,343.5297 185.75,343.21875 C 184.87033,342.82187 183.95539,342.46727 183.03125,342.15625 z "
       style="fill:url(#linearGradient12737);fill-opacity:1.0" />
  </g>
  <g
     id="g12852">
    <path
       d="M 588.4136,342.28954 L 588.4136,436.84738 L 608.00431,436.84738 L 608.00431,399.23321 L 628.37865,399.23321 L 656.06686,436.84738 L 680.35935,436.84738 L 651.6263,398.7108 C 665.1674,397.20614 674.87395,385.05476 674.87395,370.76138 C 674.87395,354.96343 661.44778,342.28954 646.40211,342.28954 L 588.4136,342.28954 z M 611.13882,362.40267 L 643.00638,362.66388 C 643.0063,362.66388 651.80342,363.32506 651.88751,371.02259 C 651.97168,378.72003 641.96155,378.59766 641.96155,378.59766 L 611.13882,378.59766 L 611.13882,362.40267 z "
       style="fill:#9d9d9d;fill-opacity:1"
       id="path6139" />
    <path
       id="polygon6235"
       d="M 583.96875 338.40625 L 583.96875 440.71875 L 612.5625 440.71875 L 612.5625 403.125 L 626.09375 403.125 L 653.9375 440.71875 L 688.53125 440.71875 L 658.4375 400.875 C 670.47404 396.3613 678.75002 384.32235 678.75 370.78125 C 678.75 352.72645 664.46102 338.40624 646.40625 338.40625 L 583.96875 338.40625 z M 586.96875 341.4375 L 646.40625 341.4375 C 662.95648 341.4375 675.75003 354.23102 675.75 370.78125 C 675.75 384.32235 665.97401 395.58234 653.9375 399.34375 L 682.53125 437.71875 L 656.1875 437.71875 L 627.59375 400.09375 L 609.5625 400.09375 L 609.5625 437.71875 L 586.96875 437.71875 L 586.96875 341.4375 z M 609.5625 361 L 609.5625 380.5625 L 644.15625 380.5625 L 644.15625 377.53125 L 612.5625 377.53125 L 612.5625 364 L 644.15625 364 L 644.15625 361 L 609.5625 361 z "
       style="fill:#1c1714" />
    <path
       sodipodi:nodetypes="ccccccsccsccc"
       id="path6267"
       d="M 644.15625,358.71875 L 608,358.75 L 608,382 L 610.34375,379.90625 L 610.34375,361.625 L 644.0625,363.96875 C 647.82393,363.96874 650.84375,366.98858 650.84375,370.75 C 650.84377,374.51141 647.82392,377.5625 644.0625,377.5625 L 644.0625,380.4375 C 649.3285,380.43751 653.96875,376.01598 653.96875,370.75 C 653.96876,366.53044 651.04847,362.94342 647.1875,361.625 L 648.75,360.0625 C 647.28771,359.38354 645.75925,358.73915 644.15625,358.71875 z "
       style="fill:#1c1714" />
    <path
       sodipodi:nodetypes="cccccsssccsccsccccssssccccsssccccccc"
       id="path6511"
       d="M 586.96875,340.6875 L 586.96875,438.46875 L 589.25,436.21875 L 589.25,342.9375 L 646.40625,342.9375 C 646.89495,342.93751 647.38927,342.94208 647.875,342.96875 C 649.41804,343.05168 650.92834,343.26793 652.40625,343.59375 C 652.4163,343.59594 652.42746,343.59155 652.4375,343.59375 C 652.86488,343.68736 653.29965,343.7937 653.71875,343.90625 L 655.53125,342.09375 C 655.13588,341.96786 654.72085,341.85926 654.3125,341.75 C 653.90415,341.64074 653.50249,341.53082 653.09375,341.4375 L 653.0625,341.46875 C 652.04421,341.23695 651.02314,341.03252 649.96875,340.90625 C 648.8048,340.77 647.6028,340.6875 646.40625,340.6875 L 586.96875,340.6875 z M 655.03125,367.375 L 653.1875,369.46875 C 653.2497,369.9279 653.1875,370.26135 653.1875,370.75 C 653.18752,372.78768 652.62019,374.54282 651.625,376 C 651.04451,376.853 650.38125,377.76332 649.53125,378.34375 C 648.53456,379.0264 647.21515,379.41978 645.875,379.65625 C 645.25586,379.76551 644.70637,379.90625 644.0625,379.90625 L 610.34375,379.90625 L 608,382 L 644.0625,382 C 644.61043,382.00009 645.34489,382.08291 645.875,382 C 650.65517,381.24772 654.52604,377.12401 655.28125,372.34375 C 655.36428,371.81355 655.53125,371.29799 655.53125,370.75 C 655.53126,370.48319 655.56209,370.2282 655.53125,369.96875 C 655.46835,368.53789 655.20608,368.2373 655.03125,367.375 z M 628.34375,398.59375 L 627.59375,400.875 L 655.4375,438.46875 L 656.9375,436.21875 L 628.34375,398.59375 z "
       style="fill:#eaeaea;fill-opacity:1" />
    <path
       sodipodi:nodetypes="cccccccccccccccc"
       id="path6517"
       d="M 655.30298,341.97962 C 654.69881,342.58379 654.32292,343.30208 653.71875,343.90625 C 655.602,344.41382 657.42892,345.12625 659.15648,346.03199 C 661.55757,347.25158 663.78742,348.81717 665.73182,350.68169 C 667.40221,352.34883 668.92573,354.1741 670.16844,356.18391 C 671.82138,358.89158 673.02723,361.87549 673.66747,364.98459 C 674.13664,367.21652 674.30633,369.50501 674.24034,371.78306 C 674.25239,372.1254 674.17332,372.64716 674.21478,372.87934 C 674.97652,372.12789 675.73826,371.60472 676.5,370.85327 C 676.48115,368.73059 676.2424,366.38107 675.80462,364.30432 C 675.42941,362.64218 674.90096,361.0156 674.2702,359.4335 C 673.72673,358.04262 672.97944,356.75092 672.28226,355.442 C 671.31205,353.85547 670.22956,352.3303 668.98121,350.94996 C 668.02553,349.99758 667.07624,349.03838 666.11657,348.09027 C 664.1676,346.32027 661.93798,344.87127 659.57083,343.72558 C 658.25848,343.10234 656.68748,342.42289 655.30298,341.97962 z "
       style="fill:url(#linearGradient12841);fill-opacity:1.0" />
    <path
       d="M 651.995,399.03105 L 652.79468,398.21658 C 652.17864,398.37055 651.55375,398.49492 650.92584,398.60451 L 651.995,399.03105 z M 673.58027,376.94526 L 676.32577,374.13757 C 676.45015,373.02988 676.50347,371.90145 676.50347,370.77002 L 676.50055,370.63377 L 674.17257,372.91144 C 674.07193,374.28862 673.87048,375.63621 673.58027,376.94526 L 673.58027,376.94526 z "
       style="fill:#1c1714"
       id="path6545" />
    <path
       id="path6547"
       d="M 676.46875 372.46875 L 673.9375 375.0625 C 672.08044 387.28267 662.41726 396.56793 650.9375 398.59375 L 678.75 436.21875 L 656.9375 436.21875 L 655.4375 438.46875 L 683.28125 438.46875 L 654.6875 400.09375 C 666.93726 396.48931 675.74906 385.30797 676.46875 372.46875 z "
       style="fill:#1c1714" />
    <polygon
       points="42.516,20.484 42.516,21.754 41.9064,21.754 41.8302,21.8302 42.6176,21.8302 42.6176,20.5602 43.2018,20.5602 43.2272,20.484 42.516,20.484 "
       transform="matrix(29.617456,0,0,29.617456,-651.92228,-208.0795)"
       style="fill:#1c1714"
       id="polygon6555" />
    <path
       sodipodi:nodetypes="ccccc"
       id="path6561"
       d="M 648.76312,360.05938 L 646.6875,361.875 C 650.20137,363.06985 652.25068,365.82112 653.18438,369.48876 L 655.03625,367.39625 C 654.06162,364.16246 651.64949,361.4437 648.76312,360.05938 z "
       style="fill:url(#linearGradient12850);fill-opacity:1.0" />
  </g>
  <g
     id="g12708">
    <polygon
       points="36.3184,18.579 35.1754,20.103 34.007,18.579 33.1942,18.579 34.8198,20.6618 34.8198,21.7794 35.5056,21.7794 35.5056,20.6618 37.1312,18.579 36.3184,18.579 "
       transform="matrix(29.617456,0,0,29.617456,-651.92228,-208.0795)"
       style="fill:#9d9d9d;fill-opacity:1"
       id="polygon6135" />
    <path
       id="polygon6177"
       d="M 323.6875 338.40625 L 375.59375 404.625 L 375.59375 440.71875 L 403.4375 440.71875 L 403.4375 404.625 L 456.09375 338.40625 L 422.21875 338.40625 L 389.875 381.3125 L 357.53125 338.40625 L 323.6875 338.40625 z M 329.6875 341.4375 L 356.03125 341.4375 L 389.875 385.8125 L 422.96875 341.4375 L 449.3125 341.4375 L 400.40625 403.875 L 400.40625 437.71875 L 378.59375 437.71875 L 378.59375 403.875 L 329.6875 341.4375 z "
       style="fill:#1c1714" />
    <path
       id="polygon6465"
       d="M 356.03125 340.6875 L 355.28125 342.9375 L 389.875 388.8125 L 389.875 385.0625 L 356.03125 340.6875 z M 450.8125 340.6875 L 446.3125 342.9375 L 398.90625 403.125 L 398.90625 436.21875 L 380.09375 436.21875 L 377.84375 438.46875 L 401.15625 438.46875 L 401.15625 403.875 L 450.8125 340.6875 z "
       style="fill:#1c1714" />
    <path
       id="polygon6467"
       d="M 328.1875 340.6875 L 377.84375 403.875 L 377.84375 438.46875 L 380.09375 436.21875 L 380.09375 403.125 L 332.71875 342.9375 L 355.28125 342.9375 L 356.03125 340.6875 L 328.1875 340.6875 z M 422.96875 340.6875 L 389.875 385.0625 L 389.875 388.8125 L 424.5 342.9375 L 446.3125 342.9375 L 450.8125 340.6875 L 422.96875 340.6875 z "
       style="fill:#eaeaea;fill-opacity:1" />
  </g>
  <g
     id="g12714">
    <polygon
       points="40.6618,19.1632 40.6618,18.579 37.7662,18.579 37.7662,21.7794 40.6618,21.7794 40.6618,21.1698 38.452,21.1698 38.452,20.4332 40.5856,20.4332 40.5856,19.8236 38.452,19.8236 38.452,19.1632 40.6618,19.1632 "
       transform="matrix(29.617456,0,0,29.617456,-651.92228,-208.0795)"
       style="fill:#9d9d9d;fill-opacity:1"
       id="polygon6137" />
    <path
       id="polygon6153"
       d="M 462.84375 338.40625 L 462.84375 440.71875 L 556.125 440.71875 L 556.125 415.15625 L 490.6875 415.15625 L 490.6875 400.875 L 553.875 400.875 L 553.875 375.28125 L 490.6875 375.28125 L 490.6875 364 L 556.125 364 L 556.125 338.40625 L 462.84375 338.40625 z M 465.875 341.4375 L 553.125 341.4375 L 553.125 361 L 487.6875 361 L 487.6875 378.28125 L 550.875 378.28125 L 550.875 397.84375 L 487.6875 397.84375 L 487.6875 418.15625 L 553.125 418.15625 L 553.125 437.71875 L 465.875 437.71875 L 465.875 341.4375 z "
       style="fill:#1c1714" />
    <path
       id="polygon6485"
       d="M 465.125 340.6875 L 465.125 438.46875 L 467.375 436.21875 L 467.375 342.9375 L 551.625 342.9375 L 553.875 340.6875 L 465.125 340.6875 z M 488.4375 377.53125 L 486.1875 379.8125 L 549.375 379.8125 L 551.625 377.53125 L 488.4375 377.53125 z M 488.4375 417.40625 L 486.1875 419.65625 L 551.625 419.65625 L 553.875 417.40625 L 488.4375 417.40625 z "
       style="fill:#eaeaea;fill-opacity:1" />
    <path
       id="polygon6487"
       d="M 553.875 340.6875 L 551.625 342.9375 L 551.625 358.71875 L 486.1875 358.71875 L 486.1875 379.8125 L 488.4375 377.53125 L 488.4375 361.75 L 553.875 361.75 L 553.875 340.6875 z M 551.625 377.53125 L 549.375 379.8125 L 549.375 396.34375 L 486.1875 396.34375 L 486.1875 419.65625 L 488.4375 417.40625 L 488.4375 398.59375 L 551.625 398.59375 L 551.625 377.53125 z M 553.875 417.40625 L 551.625 419.65625 L 551.625 436.21875 L 467.375 436.21875 L 465.125 438.46875 L 553.875 438.46875 L 553.875 417.40625 z "
       style="fill:#1c1714" />
  </g>
  <g
     id="g12692">
    <path
       d="M 307.13232,420.42072 L 249.95878,420.42072 L 242.43595,436.97096 L 220.61973,436.97096 L 268.01358,342.18325 L 289.07752,342.18325 L 336.47138,436.97096 L 314.65516,436.97096 L 307.13232,420.42072 z M 298.10492,402.36592 L 278.54555,361.74262 L 258.98618,402.36592 L 298.10492,402.36592 z "
       style="fill:#9d9d9d;fill-opacity:1"
       id="path6147" />
    <path
       id="polygon6205"
       d="M 265.75 338.40625 L 214.59375 440.71875 L 244.6875 440.71875 L 252.21875 424.1875 L 304.875 424.1875 L 312.40625 440.71875 L 342.5 440.71875 L 291.34375 338.40625 L 265.75 338.40625 z M 268 341.4375 L 289.34375 341.4375 L 288.3125 342.9375 L 334.96875 436.21875 L 315.40625 436.21875 L 314.5625 437.5 L 306.59375 421.625 L 307.875 419.65625 L 249.96875 419.65625 L 241.6875 436.21875 L 222.125 436.21875 L 219.625 437.71875 L 219.125 437.71875 L 268 341.4375 z M 278.53125 364 L 260.5 401.625 L 297.34375 401.625 L 278.53125 364 z M 278.53125 370.78125 L 292.09375 398.59375 L 265 398.59375 L 278.53125 370.78125 z "
       style="fill:#1c1714" />
    <polygon
       points="30.705,20.6364 31.4162,19.1886 31.4162,19.3664 30.832,20.5602 30.705,20.6364 "
       transform="matrix(29.617456,0,0,29.617456,-651.92228,-208.0795)"
       style="fill:#1c1714"
       id="polygon6463" />
    <path
       id="polygon6451"
       d="M 267.25 340.6875 L 218.375 438.46875 L 222.125 436.21875 L 268.78125 342.9375 L 288.3125 342.9375 L 289.84375 340.6875 L 267.25 340.6875 z M 278.53125 360.25 L 278.53125 365.5 L 295.84375 400.875 L 261.25 400.875 L 257.46875 403.125 L 299.625 403.125 L 278.53125 360.25 z M 307.875 419.65625 L 306.375 421.9375 L 313.90625 438.46875 L 315.40625 436.21875 L 307.875 419.65625 z "
       style="fill:#eaeaea;fill-opacity:1" />
  </g>
  <g
     id="g12698"
     transform="translate(111.34375,-118.87744)">
    <path
       d="M 307.13232,420.42072 L 249.95878,420.42072 L 242.43595,436.97096 L 220.61973,436.97096 L 268.01358,342.18325 L 289.07752,342.18325 L 336.47138,436.97096 L 314.65516,436.97096 L 307.13232,420.42072 z M 298.10492,402.36592 L 278.54555,361.74262 L 258.98618,402.36592 L 298.10492,402.36592 z "
       style="fill:#9d9d9d;fill-opacity:1"
       id="path12700" />
    <path
       id="path12702"
       d="M 265.75,338.40625 L 214.59375,440.71875 L 244.6875,440.71875 L 252.21875,424.1875 L 304.875,424.1875 L 312.40625,440.71875 L 342.5,440.71875 L 291.34375,338.40625 L 265.75,338.40625 z M 268,341.4375 L 289.34375,341.4375 L 288.3125,342.9375 L 334.96875,436.21875 L 315.40625,436.21875 L 314.5625,437.5 L 306.59375,421.625 L 307.875,419.65625 L 249.96875,419.65625 L 241.6875,436.21875 L 222.125,436.21875 L 219.625,437.71875 L 219.125,437.71875 L 268,341.4375 z M 278.53125,364 L 260.5,401.625 L 297.34375,401.625 L 278.53125,364 z M 278.53125,370.78125 L 292.09375,398.59375 L 265,398.59375 L 278.53125,370.78125 z "
       style="fill:#1c1714" />
    <polygon
       points="30.705,20.6364 31.4162,19.1886 31.4162,19.3664 30.832,20.5602 30.705,20.6364 "
       transform="matrix(29.617456,0,0,29.617456,-651.92228,-208.0795)"
       style="fill:#1c1714"
       id="polygon12704" />
    <path
       id="path12706"
       d="M 267.25,340.6875 L 218.375,438.46875 L 222.125,436.21875 L 268.78125,342.9375 L 288.3125,342.9375 L 289.84375,340.6875 L 267.25,340.6875 z M 278.53125,360.25 L 278.53125,365.5 L 295.84375,400.875 L 261.25,400.875 L 257.46875,403.125 L 299.625,403.125 L 278.53125,360.25 z M 307.875,419.65625 L 306.375,421.9375 L 313.90625,438.46875 L 315.40625,436.21875 L 307.875,419.65625 z "
       style="fill:#eaeaea;fill-opacity:1" />
  </g>
  <g
     id="g12720"
     transform="translate(-119.59375,118.84036)">
    <polygon
       points="40.6618,19.1632 40.6618,18.579 37.7662,18.579 37.7662,21.7794 40.6618,21.7794 40.6618,21.1698 38.452,21.1698 38.452,20.4332 40.5856,20.4332 40.5856,19.8236 38.452,19.8236 38.452,19.1632 40.6618,19.1632 "
       transform="matrix(29.617456,0,0,29.617456,-651.92228,-208.0795)"
       style="fill:#9d9d9d;fill-opacity:1"
       id="polygon12722" />
    <path
       id="path12724"
       d="M 462.84375,338.40625 L 462.84375,440.71875 L 556.125,440.71875 L 556.125,415.15625 L 490.6875,415.15625 L 490.6875,400.875 L 553.875,400.875 L 553.875,375.28125 L 490.6875,375.28125 L 490.6875,364 L 556.125,364 L 556.125,338.40625 L 462.84375,338.40625 z M 465.875,341.4375 L 553.125,341.4375 L 553.125,361 L 487.6875,361 L 487.6875,378.28125 L 550.875,378.28125 L 550.875,397.84375 L 487.6875,397.84375 L 487.6875,418.15625 L 553.125,418.15625 L 553.125,437.71875 L 465.875,437.71875 L 465.875,341.4375 z "
       style="fill:#1c1714" />
    <path
       id="path12726"
       d="M 465.125,340.6875 L 465.125,438.46875 L 467.375,436.21875 L 467.375,342.9375 L 551.625,342.9375 L 553.875,340.6875 L 465.125,340.6875 z M 488.4375,377.53125 L 486.1875,379.8125 L 549.375,379.8125 L 551.625,377.53125 L 488.4375,377.53125 z M 488.4375,417.40625 L 486.1875,419.65625 L 551.625,419.65625 L 553.875,417.40625 L 488.4375,417.40625 z "
       style="fill:#eaeaea;fill-opacity:1" />
    <path
       id="path12728"
       d="M 553.875,340.6875 L 551.625,342.9375 L 551.625,358.71875 L 486.1875,358.71875 L 486.1875,379.8125 L 488.4375,377.53125 L 488.4375,361.75 L 553.875,361.75 L 553.875,340.6875 z M 551.625,377.53125 L 549.375,379.8125 L 549.375,396.34375 L 486.1875,396.34375 L 486.1875,419.65625 L 488.4375,417.40625 L 488.4375,398.59375 L 551.625,398.59375 L 551.625,377.53125 z M 553.875,417.40625 L 551.625,419.65625 L 551.625,436.21875 L 467.375,436.21875 L 465.125,438.46875 L 553.875,438.46875 L 553.875,417.40625 z "
       style="fill:#1c1714" />
  </g>
  <g
     id="g12764"
     transform="translate(233.95312,-236.46557)">
    <path
       d="M 128.84116,418.91616 L 172.47359,418.91616 C 179.24414,418.91616 183.00556,414.40246 183.00556,408.38419 C 183.00556,401.61364 179.24414,397.09994 172.47359,397.09994 L 128.84116,397.09994 L 128.84116,418.91616 z M 128.84116,379.04514 L 170.96903,379.04514 C 176.98729,379.04514 180.74871,375.28372 180.74871,369.26545 C 180.74871,363.99947 176.98729,359.48577 170.96903,359.48577 L 128.84116,359.48577 L 128.84116,379.04514 L 128.84116,379.04514 z M 108.5295,436.97096 L 108.5295,342.18325 L 173.97816,342.18325 C 189.02383,342.18325 201.06036,354.21979 201.06036,369.26545 C 201.06036,376.036 198.80351,382.80655 193.53753,387.32025 C 199.5558,392.58624 203.31721,400.10907 203.31721,408.38419 C 203.31721,423.42986 190.52839,436.97096 175.48273,436.97096 L 108.5295,436.97096 L 108.5295,436.97096 z "
       style="fill:#9d9d9d;fill-opacity:1"
       id="path12766" />
    <path
       sodipodi:nodetypes="cccsccccccsccssssscscccc"
       id="path12768"
       d="M 104.78125,338.40625 L 104.78125,440.71875 L 175.46875,440.71875 C 192.77126,440.71875 207.09375,426.4298 207.09375,408.375 C 207.09375,400.09988 204.07849,392.57849 198.8125,387.3125 C 203.08227,383.14682 204.41038,375.46326 204.8125,369.25 C 204.8125,351.94748 191.27127,338.40624 173.96875,338.40625 L 104.78125,338.40625 z M 107.78125,341.4375 L 173.96875,341.4375 C 189.7667,341.4375 201.8125,353.45206 201.8125,369.25 C 201.8125,370.31138 201.74058,371.3835 201.625,372.4375 L 199.78125,374.3125 C 199.51469,375.56978 199.13324,376.80012 198.6875,378 C 198.49224,378.52562 198.28929,379.05187 198.0625,379.5625 C 198.03043,379.6347 198.00143,379.70938 197.96875,379.78125 C 197.9059,379.91873 197.84633,380.05128 197.78125,380.1875 C 197.57205,380.6282 197.35653,381.07327 197.125,381.5 C 195.93696,383.67703 194.45469,385.63911 192.78125,387.3125 C 198.79952,392.57849 202.5625,400.09988 202.5625,408.375 C 202.5625,423.42067 190.51441,436.21874 175.46875,436.21875 L 109.28125,436.21875 L 107.78125,437.71875 L 107.78125,341.4375 z "
       style="fill:#1c1714" />
    <path
       sodipodi:nodetypes="ccccsczcsccccsccc"
       id="path12770"
       d="M 128.09375,359.5 L 128.09375,379.8125 L 129.59375,378.28125 L 170.96875,378.28125 C 175.48245,378.28125 180,373.76371 180,369.25 C 180,366.49615 177.23705,363.80021 174.16954,362.30643 C 174.16954,362.30643 176.72693,360.95786 175.875,360.59375 C 175.02744,360.2315 174.25,359.96875 174.25,359.96875 C 173.85724,359.85148 173.67947,359.82743 173.26991,359.72422 C 172.64098,359.56573 171.68881,359.49102 170.96875,359.5 L 128.09375,359.5 z M 132.59375,364 L 170.96875,364 C 174.73016,364 177,366.24088 177,369.25 C 177,373.01142 174.73017,375.28125 170.96875,375.28125 L 132.59375,375.28125 L 132.59375,364 z "
       style="fill:#1c1714" />
    <path
       id="path12772"
       d="M 128.09375,396.34375 L 128.09375,419.65625 L 129.59375,418.15625 L 172.46875,418.15625 C 177.73474,418.15625 182.25,412.8887 182.25,408.375 C 182.25,404.36905 179.6312,400.37501 176.0625,398.6875 L 177.40625,397.4375 C 177.04099,397.26496 176.67001,397.13623 176.28125,397 L 176.3125,396.96875 C 176.0193,396.86805 175.71403,396.79706 175.40625,396.71875 C 175.3336,396.70027 175.26092,396.67342 175.1875,396.65625 C 174.32777,396.45518 173.42043,396.34375 172.46875,396.34375 L 128.09375,396.34375 z M 132.59375,400.875 L 172.46875,400.875 C 176.23017,400.875 179.25,403.8613 179.25,408.375 C 179.25,412.13642 176.23017,415.15624 172.46875,415.15625 L 132.59375,415.15625 L 132.59375,400.875 z "
       style="fill:#1c1714" />
    <path
       id="path12774"
       d="M 175.875,360.59375 L 174,362.34375 C 174.75228,362.63989 175.46585,363.02607 176.09375,363.5 C 176.79864,364.03311 177.41166,364.65658 177.90625,365.34375 C 178.45415,366.10488 178.84334,366.95063 179.0625,367.8125 C 179.18395,368.29823 179.25,368.75542 179.25,369.25 C 179.25,370.19488 179.08333,371.147 178.78125,372 L 181.5,369.25 C 181.5,368.12752 181.28833,367.07842 180.90625,366.0625 C 180.58644,365.20357 180.1506,364.39374 179.59375,363.65625 C 179.06656,362.95436 178.42958,362.30385 177.71875,361.75 C 177.14417,361.30282 176.54729,360.91949 175.875,360.59375 z M 173.6875,377.09375 C 172.8345,377.39584 171.91353,377.53125 170.96875,377.53125 L 170.96875,379.8125 L 173.6875,377.09375 z "
       style="opacity:1;color:#000000;fill:url(#linearGradient12782);fill-opacity:1;fill-rule:nonzero;stroke:none;stroke-width:1;stroke-linecap:butt;stroke-linejoin:miter;marker:none;marker-start:none;marker-mid:none;marker-end:none;stroke-miterlimit:4;stroke-dasharray:none;stroke-dashoffset:0;stroke-opacity:1;visibility:visible;display:inline;overflow:visible;enable-background:accumulate" />
    <path
       id="path12776"
       d="M 107.03125,340.6875 L 107.03125,438.46875 L 109.28125,436.21875 L 109.28125,342.9375 L 173.96875,342.9375 C 174.46041,342.93751 174.9547,342.94509 175.4375,342.96875 C 176.36769,343.01664 177.29225,343.11868 178.1875,343.25 C 178.62052,343.31352 179.04393,343.38572 179.46875,343.46875 C 180.09581,343.58494 180.70634,343.71198 181.3125,343.875 L 183.03125,342.15625 C 182.45858,341.96591 181.8651,341.81204 181.28125,341.65625 L 181.3125,341.625 C 181.0567,341.55737 180.78963,341.52903 180.53125,341.46875 C 180.38398,341.43439 180.24187,341.37575 180.09375,341.34375 C 179.25004,341.16148 178.37245,341.01409 177.5,340.90625 C 176.34198,340.76416 175.1653,340.6875 173.96875,340.6875 L 107.03125,340.6875 z M 181.40625,367.875 L 179.21875,370.0625 C 178.84262,373.96608 175.6536,377.12084 171.75,377.5 L 170.96875,378.28125 L 170.96875,377.53125 L 130.34375,377.53125 L 128.09375,379.8125 L 170.96875,379.8125 C 171.5374,379.8125 172.08595,379.76449 172.625,379.6875 C 177.04684,379.05074 180.40459,375.87776 181.28125,371.5625 C 181.42929,370.83388 181.5,370.03789 181.5,369.25 C 181.5,368.77323 181.4803,368.33698 181.40625,367.875 z M 183.59375,406.1875 L 181.5,408.1875 L 181.5,408.375 C 181.5,412.8887 177.73474,417.40625 172.46875,417.40625 L 130.34375,417.40625 L 128.09375,419.65625 L 172.46875,419.65625 C 173.01667,419.65626 173.54718,419.62761 174.0625,419.5625 C 179.36401,418.88127 182.99875,414.8483 183.65625,410 C 183.72737,409.47574 183.75,408.91706 183.75,408.375 C 183.75,407.62272 183.70033,406.89532 183.59375,406.1875 z "
       style="fill:#eaeaea;fill-opacity:1" />
    <path
       sodipodi:nodetypes="ccccc"
       id="path12778"
       d="M 177.32735,397.36406 L 175.71875,398.96875 C 179.79871,401.21879 181.92521,405.29683 181.40625,409.75 C 182.86215,408.4376 182.33007,408.9888 183.75,407.53125 C 183.64743,403.26231 181.02828,399.33772 177.32735,397.36406 z "
       style="fill:url(#linearGradient12784);fill-opacity:1" />
    <path
       sodipodi:nodetypes="ccssssssssssssssccccssssssssssssc"
       id="path12780"
       d="M 183.03125,342.15625 L 181.3125,343.875 C 182.28394,344.1357 183.2098,344.45124 184.125,344.8125 C 184.83582,345.09092 185.54345,345.41231 186.21875,345.75 C 187.04802,346.16166 187.85491,346.59917 188.625,347.09375 C 189.38313,347.5825 190.11647,348.12479 190.8125,348.6875 C 191.36636,349.13478 191.89386,349.60209 192.40625,350.09375 C 193.04595,350.70677 193.6471,351.35303 194.21875,352.03125 C 194.79625,352.7154 195.34022,353.4099 195.84375,354.15625 C 196.2524,354.7575 196.64459,355.39147 197,356.03125 C 197.45312,356.84866 197.85147,357.68876 198.21875,358.5625 C 198.59489,359.4599 198.90907,360.39002 199.1875,361.34375 C 199.41853,362.13449 199.62135,362.95491 199.78125,363.78125 C 200.02114,365.01031 200.17595,366.26531 200.25,367.5625 C 200.2826,368.1253 200.3125,368.67543 200.3125,369.25 C 200.31251,369.76541 200.2826,370.29718 200.25,370.8125 C 200.17302,371.99125 200.02708,373.32264 199.78125,374.47773 L 202.46875,371.59375 C 202.53094,370.82367 202.5625,370.04082 202.5625,369.25 L 202.5625,368.53125 C 202.53582,367.53312 202.46813,366.53395 202.34375,365.5625 C 202.18386,364.32449 201.93595,363.11926 201.625,361.9375 C 201.42063,361.15856 201.17281,360.37436 200.90625,359.625 C 200.58051,358.71582 200.22417,357.83062 199.8125,356.96875 C 199.41262,356.13054 198.97686,355.32499 198.5,354.53125 C 198.12386,353.90927 197.73011,353.30812 197.3125,352.71875 C 196.79417,351.99013 196.23968,351.26905 195.65625,350.59375 C 195.07866,349.92146 194.44926,349.30052 193.8125,348.6875 C 193.30011,348.19284 192.76675,347.70321 192.21875,347.25 C 191.53167,346.67843 190.83417,346.12844 190.09375,345.625 C 189.34146,345.11262 188.5526,344.66001 187.75,344.21875 C 187.09542,343.86034 186.43115,343.5297 185.75,343.21875 C 184.87033,342.82187 183.95539,342.46727 183.03125,342.15625 z "
       style="fill:url(#linearGradient12786);fill-opacity:1" />
  </g>
  <g
     id="g12863"
     transform="translate(-240.35937,239.57896)">
    <path
       d="M 588.4136,342.28954 L 588.4136,436.84738 L 608.00431,436.84738 L 608.00431,399.23321 L 628.37865,399.23321 L 656.06686,436.84738 L 680.35935,436.84738 L 651.6263,398.7108 C 665.1674,397.20614 674.87395,385.05476 674.87395,370.76138 C 674.87395,354.96343 661.44778,342.28954 646.40211,342.28954 L 588.4136,342.28954 z M 611.13882,362.40267 L 643.00638,362.66388 C 643.0063,362.66388 651.80342,363.32506 651.88751,371.02259 C 651.97168,378.72003 641.96155,378.59766 641.96155,378.59766 L 611.13882,378.59766 L 611.13882,362.40267 z "
       style="fill:#9d9d9d;fill-opacity:1"
       id="path12865" />
    <path
       id="path12867"
       d="M 583.96875,338.40625 L 583.96875,440.71875 L 612.5625,440.71875 L 612.5625,403.125 L 626.09375,403.125 L 653.9375,440.71875 L 688.53125,440.71875 L 658.4375,400.875 C 670.47404,396.3613 678.75002,384.32235 678.75,370.78125 C 678.75,352.72645 664.46102,338.40624 646.40625,338.40625 L 583.96875,338.40625 z M 586.96875,341.4375 L 646.40625,341.4375 C 662.95648,341.4375 675.75003,354.23102 675.75,370.78125 C 675.75,384.32235 665.97401,395.58234 653.9375,399.34375 L 682.53125,437.71875 L 656.1875,437.71875 L 627.59375,400.09375 L 609.5625,400.09375 L 609.5625,437.71875 L 586.96875,437.71875 L 586.96875,341.4375 z M 609.5625,361 L 609.5625,380.5625 L 644.15625,380.5625 L 644.15625,377.53125 L 612.5625,377.53125 L 612.5625,364 L 644.15625,364 L 644.15625,361 L 609.5625,361 z "
       style="fill:#1c1714" />
    <path
       sodipodi:nodetypes="ccccccsccsccc"
       id="path12869"
       d="M 644.15625,358.71875 L 608,358.75 L 608,382 L 610.34375,379.90625 L 610.34375,361.625 L 644.0625,363.96875 C 647.82393,363.96874 650.84375,366.98858 650.84375,370.75 C 650.84377,374.51141 647.82392,377.5625 644.0625,377.5625 L 644.0625,380.4375 C 649.3285,380.43751 653.96875,376.01598 653.96875,370.75 C 653.96876,366.53044 651.04847,362.94342 647.1875,361.625 L 648.75,360.0625 C 647.28771,359.38354 645.75925,358.73915 644.15625,358.71875 z "
       style="fill:#1c1714" />
    <path
       sodipodi:nodetypes="cccccsssccsccsccccssssccccsssccccccc"
       id="path12871"
       d="M 586.96875,340.6875 L 586.96875,438.46875 L 589.25,436.21875 L 589.25,342.9375 L 646.40625,342.9375 C 646.89495,342.93751 647.38927,342.94208 647.875,342.96875 C 649.41804,343.05168 650.92834,343.26793 652.40625,343.59375 C 652.4163,343.59594 652.42746,343.59155 652.4375,343.59375 C 652.86488,343.68736 653.29965,343.7937 653.71875,343.90625 L 655.53125,342.09375 C 655.13588,341.96786 654.72085,341.85926 654.3125,341.75 C 653.90415,341.64074 653.50249,341.53082 653.09375,341.4375 L 653.0625,341.46875 C 652.04421,341.23695 651.02314,341.03252 649.96875,340.90625 C 648.8048,340.77 647.6028,340.6875 646.40625,340.6875 L 586.96875,340.6875 z M 655.03125,367.375 L 653.1875,369.46875 C 653.2497,369.9279 653.1875,370.26135 653.1875,370.75 C 653.18752,372.78768 652.62019,374.54282 651.625,376 C 651.04451,376.853 650.38125,377.76332 649.53125,378.34375 C 648.53456,379.0264 647.21515,379.41978 645.875,379.65625 C 645.25586,379.76551 644.70637,379.90625 644.0625,379.90625 L 610.34375,379.90625 L 608,382 L 644.0625,382 C 644.61043,382.00009 645.34489,382.08291 645.875,382 C 650.65517,381.24772 654.52604,377.12401 655.28125,372.34375 C 655.36428,371.81355 655.53125,371.29799 655.53125,370.75 C 655.53126,370.48319 655.56209,370.2282 655.53125,369.96875 C 655.46835,368.53789 655.20608,368.2373 655.03125,367.375 z M 628.34375,398.59375 L 627.59375,400.875 L 655.4375,438.46875 L 656.9375,436.21875 L 628.34375,398.59375 z "
       style="fill:#eaeaea;fill-opacity:1" />
    <path
       sodipodi:nodetypes="cccccccccccccccc"
       id="path12873"
       d="M 655.30298,341.97962 C 654.69881,342.58379 654.32292,343.30208 653.71875,343.90625 C 655.602,344.41382 657.42892,345.12625 659.15648,346.03199 C 661.55757,347.25158 663.78742,348.81717 665.73182,350.68169 C 667.40221,352.34883 668.92573,354.1741 670.16844,356.18391 C 671.82138,358.89158 673.02723,361.87549 673.66747,364.98459 C 674.13664,367.21652 674.30633,369.50501 674.24034,371.78306 C 674.25239,372.1254 674.17332,372.64716 674.21478,372.87934 C 674.97652,372.12789 675.73826,371.60472 676.5,370.85327 C 676.48115,368.73059 676.2424,366.38107 675.80462,364.30432 C 675.42941,362.64218 674.90096,361.0156 674.2702,359.4335 C 673.72673,358.04262 672.97944,356.75092 672.28226,355.442 C 671.31205,353.85547 670.22956,352.3303 668.98121,350.94996 C 668.02553,349.99758 667.07624,349.03838 666.11657,348.09027 C 664.1676,346.32027 661.93798,344.87127 659.57083,343.72558 C 658.25848,343.10234 656.68748,342.42289 655.30298,341.97962 z "
       style="fill:url(#linearGradient12883);fill-opacity:1" />
    <path
       d="M 651.995,399.03105 L 652.79468,398.21658 C 652.17864,398.37055 651.55375,398.49492 650.92584,398.60451 L 651.995,399.03105 z M 673.58027,376.94526 L 676.32577,374.13757 C 676.45015,373.02988 676.50347,371.90145 676.50347,370.77002 L 676.50055,370.63377 L 674.17257,372.91144 C 674.07193,374.28862 673.87048,375.63621 673.58027,376.94526 L 673.58027,376.94526 z "
       style="fill:#1c1714"
       id="path12875" />
    <path
       id="path12877"
       d="M 676.46875,372.46875 L 673.9375,375.0625 C 672.08044,387.28267 662.41726,396.56793 650.9375,398.59375 L 678.75,436.21875 L 656.9375,436.21875 L 655.4375,438.46875 L 683.28125,438.46875 L 654.6875,400.09375 C 666.93726,396.48931 675.74906,385.30797 676.46875,372.46875 z "
       style="fill:#1c1714" />
    <polygon
       points="42.516,20.484 42.516,21.754 41.9064,21.754 41.8302,21.8302 42.6176,21.8302 42.6176,20.5602 43.2018,20.5602 43.2272,20.484 42.516,20.484 "
       transform="matrix(29.617456,0,0,29.617456,-651.92228,-208.0795)"
       style="fill:#1c1714"
       id="polygon12879" />
    <path
       sodipodi:nodetypes="ccccc"
       id="path12881"
       d="M 648.76312,360.05938 L 646.6875,361.875 C 650.20137,363.06985 652.25068,365.82112 653.18438,369.48876 L 655.03625,367.39625 C 654.06162,364.16246 651.64949,361.4437 648.76312,360.05938 z "
       style="fill:url(#linearGradient12885);fill-opacity:1" />
  </g>
</svg>
